<svg width="22" height="22" viewBox="0 0 22 22" fill="none" xmlns="http://www.w3.org/2000/svg"><path d="M5.86115 4.85185C5.86115 3.69103 6.80218 2.75 7.963 2.75H17.1482C18.309 2.75 19.25 3.69103 19.25 4.85185V16.1111C19.25 17.2719 18.309 18.213 17.1482 18.213H7.963C6.80218 18.213 5.86115 17.2719 5.86115 16.1111V4.85185Z" stroke="white" stroke-width="1.5" stroke-linecap="round" stroke-linejoin="round"></path><path d="M8.50513 7.28959C8.50513 6.89909 8.82169 6.58252 9.2122 6.58252H15.8115C16.202 6.58252 16.5186 6.89909 16.5186 7.28959C16.5186 7.68009 16.202 7.99666 15.8115 7.99666H9.2122C8.82169 7.99666 8.50513 7.68009 8.50513 7.28959Z" fill="white"></path><path d="M8.50513 10.5893C8.50513 10.1988 8.82169 9.8822 9.2122 9.8822H15.8115C16.202 9.8822 16.5186 10.1988 16.5186 10.5893C16.5186 10.9798 16.202 11.2963 15.8115 11.2963H9.2122C8.82169 11.2963 8.50513 10.9798 8.50513 10.5893Z" fill="white"></path><path d="M8.50513 13.889C8.50513 13.4985 8.82169 13.1819 9.2122 13.1819H15.8115C16.202 13.1819 16.5186 13.4985 16.5186 13.889C16.5186 14.2795 16.202 14.596 15.8115 14.596H9.2122C8.82169 14.596 8.50513 14.2795 8.50513 13.889Z" fill="white"></path><path fill-rule="evenodd" clip-rule="evenodd" d="M5.11116 10.2963H4.85185C3.27682 10.2963 2 11.5731 2 13.1481V16.1111C2 17.6861 3.27682 18.9629 4.85185 18.9629H7.95519C6.87259 18.96 5.93183 18.3539 5.45129 17.4629H4.85185C4.10524 17.4629 3.5 16.8577 3.5 16.1111V13.1481C3.5 12.4015 4.10525 11.7963 4.85185 11.7963H5.11116V10.2963Z" fill="white"></path></svg>