<svg width="22" height="22" viewBox="0 0 22 22" fill="none" xmlns="http://www.w3.org/2000/svg"><path fill-rule="evenodd" clip-rule="evenodd" d="M2 4.11762C2 2.94809 2.94809 2 4.11762 2H17.8824C19.0519 2 20 2.94809 20 4.11762V17.8824C20 19.0519 19.0519 20 17.8824 20H4.11762C2.94809 20 2 19.0519 2 17.8824V4.11762ZM4.11762 3.68224C3.87717 3.68224 3.68224 3.87717 3.68224 4.11762V17.8824C3.68224 18.1228 3.87717 18.3178 4.11762 18.3178H17.8824C18.1228 18.3178 18.3178 18.1228 18.3178 17.8824V4.11762C18.3178 3.87717 18.1228 3.68224 17.8824 3.68224H4.11762Z" fill="white"></path><path fill-rule="evenodd" clip-rule="evenodd" d="M10.2184 6.22582C10.5469 6.5543 10.5469 7.08687 10.2184 7.41535L7.64752 9.98624C7.31904 10.3147 6.78647 10.3147 6.458 9.98624L5.42964 8.95788C5.10116 8.6294 5.10116 8.09683 5.42964 7.76836C5.75812 7.43988 6.29069 7.43988 6.61916 7.76836L7.05276 8.20195L9.02889 6.22582C9.35737 5.89734 9.88994 5.89734 10.2184 6.22582Z" fill="white"></path><path fill-rule="evenodd" clip-rule="evenodd" d="M10.2178 12.1961C10.5463 12.5246 10.5463 13.0572 10.2178 13.3856L7.64695 15.9565C7.31847 16.285 6.78591 16.285 6.45743 15.9565L5.42907 14.9282C5.10059 14.5997 5.10059 14.0671 5.42907 13.7387C5.75755 13.4102 6.29012 13.4102 6.6186 13.7387L7.05219 14.1722L9.02832 12.1961C9.3568 11.8676 9.88937 11.8676 10.2178 12.1961Z" fill="white"></path><path fill-rule="evenodd" clip-rule="evenodd" d="M11.5499 8.01411C11.5499 7.54957 11.9264 7.17299 12.391 7.17299H16.3709C16.8355 7.17299 17.212 7.54957 17.212 8.01411C17.212 8.47865 16.8355 8.85523 16.3709 8.85523H12.391C11.9264 8.85523 11.5499 8.47865 11.5499 8.01411Z" fill="white"></path><path fill-rule="evenodd" clip-rule="evenodd" d="M11.5492 14.3831C11.5492 13.9185 11.9258 13.5419 12.3904 13.5419H16.3703C16.8348 13.5419 17.2114 13.9185 17.2114 14.3831C17.2114 14.8476 16.8348 15.2242 16.3703 15.2242H12.3904C11.9258 15.2242 11.5492 14.8476 11.5492 14.3831Z" fill="white"></path></svg>