<svg width="22" height="22" viewBox="0 0 22 22" fill="none" xmlns="http://www.w3.org/2000/svg"><path fill-rule="evenodd" clip-rule="evenodd" d="M10.9761 2C9.94258 2 8.96218 2.43885 8.24737 3.20212C7.70481 3.78146 7.34764 4.51209 7.20776 5.29398H2.75014C2.33593 5.29398 2.00014 5.62977 2.00014 6.04398V9.87306C1.99995 9.88289 1.99995 9.89269 2.00014 9.90245V18.1219C2.00014 18.5361 2.33593 18.8719 2.75014 18.8719H19.2027C19.6169 18.8719 19.9527 18.5361 19.9527 18.1219V9.90245C19.9529 9.89268 19.9529 9.88289 19.9527 9.87307V6.04398C19.9527 5.62977 19.6169 5.29398 19.2027 5.29398H14.7445C14.6046 4.51209 14.2474 3.78146 13.7049 3.20212C12.9901 2.43885 12.0096 2 10.9761 2ZM13.2071 5.29398C13.0929 4.89148 12.8881 4.52437 12.61 4.22745C12.1678 3.75523 11.5789 3.5 10.9761 3.5C10.3733 3.5 9.78446 3.75523 9.34222 4.22745C9.06415 4.52437 8.85935 4.89148 8.74517 5.29398H13.2071ZM18.4527 6.79398V9.27224L10.9764 10.7691L3.50014 9.27224V6.79398H18.4527ZM3.50014 17.3719V10.802L10.8292 12.2694C10.9264 12.2888 11.0265 12.2888 11.1236 12.2694L18.4527 10.802V17.3719H3.50014Z" fill="white"></path></svg>