<svg width="22" height="22" viewBox="0 0 22 22" fill="none" xmlns="http://www.w3.org/2000/svg"><path fill-rule="evenodd" clip-rule="evenodd" d="M11 2C8.61305 2 6.32387 2.94821 4.63604 4.63604C2.94821 6.32387 2 8.61305 2 11C2 13.3869 2.94821 15.6761 4.63604 17.364C6.32387 19.0518 8.61305 20 11 20C13.3869 20 15.6761 19.0518 17.364 17.364C19.0518 15.6761 20 13.3869 20 11C20 8.61305 19.0518 6.32387 17.364 4.63604C15.6761 2.94821 13.3869 2 11 2ZM5.82928 5.82928C7.20064 4.45792 9.0606 3.6875 11 3.6875C12.9394 3.6875 14.7994 4.45792 16.1707 5.82928C17.5421 7.20064 18.3125 9.0606 18.3125 11C18.3125 12.9394 17.5421 14.7994 16.1707 16.1707C14.7994 17.5421 12.9394 18.3125 11 18.3125C9.0606 18.3125 7.20064 17.5421 5.82928 16.1707C4.45792 14.7994 3.6875 12.9394 3.6875 11C3.6875 9.0606 4.45792 7.20064 5.82928 5.82928Z" fill="white"></path><path fill-rule="evenodd" clip-rule="evenodd" d="M10.1825 6.64305C10.1825 6.20767 10.5355 5.85474 10.9708 5.85474C11.4062 5.85474 11.7592 6.20768 11.7592 6.64305V6.77383C11.9011 6.80356 12.0605 6.8455 12.1966 6.90441C12.5504 7.05759 12.8676 7.28452 13.1267 7.57004L13.1431 7.58807L13.1583 7.60713C13.4985 8.0346 13.7139 8.54773 13.781 9.0899C13.8318 9.50099 13.5398 9.87544 13.1287 9.92627C12.7176 9.9771 12.3432 9.68506 12.2923 9.27397C12.2602 9.01421 12.1591 8.76796 11.9998 8.56069C11.8872 8.4414 11.7514 8.34621 11.6007 8.28097L11.601 8.28109C11.601 8.28109 11.6009 8.28106 11.6007 8.281C11.5992 8.28043 11.5908 8.27716 11.5735 8.27196C11.5534 8.26589 11.5274 8.25898 11.4954 8.25163C11.431 8.23678 11.3567 8.22331 11.2823 8.21181C11.2089 8.20046 11.1415 8.19196 11.0923 8.18631L11.0499 8.18163H10.7834C10.7549 8.18644 10.7183 8.19273 10.6784 8.19986C10.587 8.21619 10.4996 8.23318 10.4487 8.24532C10.3757 8.26649 10.3044 8.29294 10.2353 8.32446L10.2239 8.32968L10.2239 8.32958C10.0663 8.39829 9.93549 8.51653 9.85124 8.6663C9.76442 8.82974 9.71978 9.01232 9.72142 9.19745L9.72152 9.20853L9.72129 9.21961C9.71812 9.37308 9.7585 9.52423 9.83766 9.65559C9.94953 9.82427 10.1034 9.96098 10.2842 10.0522L10.3072 10.0639L10.3295 10.0771C10.6402 10.2618 10.9682 10.4156 11.3088 10.5365C11.7839 10.6647 12.243 10.8462 12.6774 11.0774C13.044 11.2689 13.3606 11.5437 13.6017 11.8798L13.6221 11.9082L13.6398 11.9384C13.8585 12.3125 13.967 12.7405 13.9532 13.1732C13.9644 13.6518 13.8268 14.1224 13.5588 14.5198L13.5322 14.5593L13.5008 14.5951C13.2154 14.9204 12.8458 15.1603 12.4328 15.2884C12.2132 15.3678 11.9879 15.4286 11.7592 15.4704V15.5772C11.7592 16.0126 11.4062 16.3656 10.9708 16.3656C10.5355 16.3656 10.1825 16.0126 10.1825 15.5772V15.4812C9.73828 15.4026 9.3099 15.2437 8.9191 15.0102L8.90643 15.0027L8.89408 14.9946C8.55963 14.7765 8.28976 14.4728 8.11251 14.1151C7.9829 13.859 7.89814 13.5826 7.86191 13.2979C7.80963 12.887 8.10035 12.5115 8.51125 12.4592C8.92216 12.4069 9.29764 12.6977 9.34992 13.1086C9.36459 13.2239 9.39901 13.3358 9.45169 13.4393L9.45592 13.4477L9.45587 13.4477C9.51217 13.5619 9.59717 13.6595 9.70242 13.7309C10.0594 13.9406 10.4678 14.0469 10.882 14.0375L10.9017 14.0371L10.9214 14.0377C11.2671 14.0481 11.6115 13.9922 11.9361 13.8729L11.9578 13.8649L11.98 13.8583C12.1168 13.8174 12.2408 13.7426 12.3405 13.6411C12.4197 13.5074 12.459 13.3534 12.4533 13.1975L12.4522 13.1668L12.4536 13.1361C12.4601 12.993 12.4281 12.8511 12.3613 12.725C12.2596 12.5923 12.13 12.4835 11.9815 12.4062L11.975 12.4028L11.975 12.4028C11.6325 12.2203 11.2701 12.0779 10.895 11.9785L10.8671 11.9711L10.8399 11.9616C10.4031 11.8091 9.98247 11.6139 9.58401 11.3789C9.17483 11.1671 8.82737 10.8528 8.57568 10.4665L8.5707 10.4589L8.56591 10.4511C8.33392 10.0754 8.21442 9.64117 8.22141 9.19981C8.21937 8.76447 8.32621 8.33546 8.53229 7.95185L8.53703 7.94303L8.53709 7.94307C8.78001 7.50499 9.15985 7.15871 9.61833 6.95723C9.75893 6.89343 9.90414 6.84034 10.0527 6.79842L10.0635 6.7954L10.0742 6.7927C10.1076 6.78435 10.1446 6.776 10.1825 6.76795V6.64305Z" fill="white"></path></svg>