<svg width="22" height="22" viewBox="0 0 22 22" fill="none" xmlns="http://www.w3.org/2000/svg"><path fill-rule="evenodd" clip-rule="evenodd" d="M2.75 2C3.16421 2 3.5 2.33579 3.5 2.75V18.4528H19.2028C19.617 18.4528 19.9528 18.7886 19.9528 19.2028C19.9528 19.617 19.617 19.9528 19.2028 19.9528H2.75C2.33579 19.9528 2 19.617 2 19.2028V2.75C2 2.33579 2.33579 2 2.75 2Z" fill="white"></path><path d="M5.97644 13.4079L9.06902 8.76522C9.07372 8.75949 9.08274 8.76043 9.08615 8.767L11.6181 13.357C11.6317 13.3816 11.6656 13.3849 11.6837 13.3635L17.3159 6.70728M17.3159 6.70728L14.2537 6.7073M17.3159 6.70728V9.79986" stroke="white" stroke-width="1.5" stroke-linecap="round" stroke-linejoin="round"></path></svg>