<svg width="22" height="22" viewBox="0 0 22 22" fill="none" xmlns="http://www.w3.org/2000/svg"><path fill-rule="evenodd" clip-rule="evenodd" d="M7.29579 2.75C7.29579 2.33579 6.96 2 6.54579 2C6.13157 2 5.79579 2.33579 5.79579 2.75V4.53042H4.01523C3.48076 4.53042 2.96818 4.74274 2.59025 5.12067C2.21232 5.4986 2 6.01118 2 6.54565V10.3414V17.9327C2 18.4672 2.21232 18.9798 2.59025 19.3577C2.96818 19.7357 3.48076 19.948 4.01523 19.948H17.9328C18.4672 19.948 18.9798 19.7357 19.3577 19.3577C19.7357 18.9798 19.948 18.4672 19.948 17.9327V10.3414V6.54565C19.948 6.01118 19.7357 5.4986 19.3577 5.12067C18.9798 4.74274 18.4672 4.53042 17.9328 4.53042H16.1524V2.75C16.1524 2.33579 15.8166 2 15.4024 2C14.9882 2 14.6524 2.33579 14.6524 2.75V4.56083L7.58715 4.56083C7.48382 4.56083 7.38536 4.58172 7.29579 4.61953V2.75ZM7.29579 6.00213V7.81093C7.29579 8.22515 6.96 8.56093 6.54579 8.56093C6.13157 8.56093 5.79579 8.22515 5.79579 7.81093V6.03042H4.01523C3.87858 6.03042 3.74753 6.0847 3.65091 6.18133C3.55428 6.27795 3.5 6.409 3.5 6.54565V9.59135H18.448V6.54565C18.448 6.409 18.3937 6.27795 18.2971 6.18133C18.2005 6.0847 18.0694 6.03042 17.9328 6.03042H16.1524V7.81093C16.1524 8.22515 15.8166 8.56093 15.4024 8.56093C14.9882 8.56093 14.6524 8.22515 14.6524 7.81093V6.06083L7.58715 6.06083C7.48382 6.06083 7.38536 6.03993 7.29579 6.00213ZM3.5 17.9327V11.0914H18.448V17.9327C18.448 18.0694 18.3937 18.2005 18.2971 18.2971C18.2005 18.3937 18.0694 18.448 17.9328 18.448H4.01523C3.87858 18.448 3.74753 18.3937 3.65091 18.2971C3.55428 18.2004 3.5 18.0694 3.5 17.9327Z" fill="white"></path></svg>