<svg width="22" height="22" viewBox="0 0 22 22" fill="none" xmlns="http://www.w3.org/2000/svg"><path fill-rule="evenodd" clip-rule="evenodd" d="M17.0025 6.13853C17.0025 6.70027 16.8736 7.21698 16.6564 7.68661L16.6558 7.68795C16.5251 7.97031 16.3625 8.23566 16.1768 8.48353C16.0862 8.6045 15.99 8.7213 15.8895 8.8339C15.8443 8.88443 15.8598 8.96483 15.9204 8.99519C16.0511 9.06072 16.1788 9.13027 16.3034 9.2037C16.5777 9.36538 16.8372 9.54591 17.0817 9.74392L17.0845 9.74623C18.9459 11.2556 19.9368 13.7786 20.0001 16.7026C20.0036 16.8683 19.869 17.0028 19.7033 17.0028H15.6463C15.5127 16.4765 15.3418 15.9748 15.1342 15.5028H18.4092C18.083 12.9929 16.9291 11.1786 15.2483 10.3362C14.3073 9.8646 14.0653 8.62429 14.7708 7.83455C15.2479 7.30061 15.5021 6.7389 15.5025 6.13999C15.5009 5.42403 15.2248 4.74765 14.7497 4.25644C14.2766 3.76728 13.6466 3.50156 13.0004 3.5C12.3543 3.5019 11.7244 3.76779 11.2515 4.25695C10.9559 4.56274 10.7373 4.94024 10.6139 5.35436C10.1564 5.14521 9.66156 5.02483 9.15405 5.00385C9.33989 4.33346 9.68792 3.71617 10.1731 3.21433C10.923 2.43866 11.9395 2.00201 13 2C14.0607 2.00147 15.0777 2.43789 15.8279 3.21364C16.5782 3.98939 17.0006 5.04118 17.0025 6.13853Z" fill="white"></path><path d="M5.55159 11.3334L5.69366 11.2068C5.69366 11.2068 5.69366 11.2068 5.69366 11.2068L5.55159 11.3334ZM6.71161 5.736C7.32304 5.10359 8.1462 4.75233 8.99948 4.75037C9.85295 4.75188 10.6764 5.10295 11.2881 5.7354L11.8137 5.22706L11.2881 5.7354C11.9008 6.36889 12.2501 7.23299 12.2518 8.13966C12.2516 8.97155 11.8929 9.70393 11.3295 10.3346C10.9541 10.7547 11.0829 11.4151 11.5836 11.6661C13.7541 12.7539 15.051 15.1606 15.231 18.2531H2.77162C2.9519 15.1599 4.25107 12.7536 6.41721 11.6657C6.91706 11.4147 7.04582 10.7555 6.67144 10.3354C6.10882 9.70406 5.74831 8.97075 5.7481 8.13961C5.75005 7.23321 6.09922 6.36941 6.71161 5.736Z" stroke="white" stroke-width="1.5"></path></svg>