<svg width="22" height="22" viewBox="0 0 22 22" fill="none" xmlns="http://www.w3.org/2000/svg"><path fill-rule="evenodd" clip-rule="evenodd" d="M17.0059 5.4403C17.3975 5.03036 17.9287 4.80005 18.4826 4.80005C19.0365 4.80005 19.5677 5.03036 19.9594 5.4403C20.351 5.85025 20.5711 6.40626 20.5711 6.98602C20.5711 7.56577 20.351 8.12178 19.9594 8.53173L14.2886 14.4673C14.1736 14.5877 14.0243 14.6658 13.8633 14.6899L11.6582 15.0194C11.4239 15.0544 11.1876 14.972 11.0203 14.7968C10.8529 14.6217 10.7742 14.3743 10.8076 14.1291L11.1224 11.8211C11.1454 11.6525 11.2201 11.4963 11.3351 11.3759L17.0059 5.4403ZM18.4826 6.37394C18.3275 6.37394 18.1788 6.43842 18.0691 6.55321L12.5756 12.3033L12.4379 13.313L13.4026 13.1689L18.8961 7.41882C19.0058 7.30403 19.0674 7.14835 19.0674 6.98602C19.0674 6.82368 19.0058 6.668 18.8961 6.55321C18.7864 6.43842 18.6377 6.37394 18.4826 6.37394Z" fill="white"></path><path fill-rule="evenodd" clip-rule="evenodd" d="M5.95573 2C4.32333 2 3 3.38512 3 5.09375V16.9062C3 18.6149 4.32333 20 5.95573 20H15.0916C16.724 20 18.0474 18.6149 18.0474 16.9062V10.1319L16.4351 10.3194V16.9062C16.4351 17.6829 15.8336 18.3125 15.0916 18.3125H5.95573C5.21373 18.3125 4.61222 17.6829 4.61222 16.9062V5.09375C4.61222 4.3171 5.21373 3.6875 5.95573 3.6875H15.0916C15.8336 3.6875 16.4351 4.3171 16.4351 5.09375V6.39848L16.4718 6.39464L17.8001 5.8L18.0474 5.97061V5.09375C18.0474 3.38512 16.724 2 15.0916 2H5.95573Z" fill="white"></path></svg>